<svg width="14" height="12" viewBox="0 0 14 12" fill="none" xmlns="http://www.w3.org/2000/svg">
<path d="M7.63918 11.7371L12.0157 7.36057L13.5883 5.78804C13.8819 5.49438 13.6735 4.98283 13.2567 4.98283L10.3485 4.98283C10.0643 4.98283 9.82747 4.746 9.82747 4.46181V0.445234C9.82747 0.198934 9.62853 0 9.38223 0L4.61728 0C4.37099 0 4.17205 0.198934 4.17205 0.445234V4.46181C4.17205 4.746 3.93522 4.98283 3.65103 4.98283H0.742792C0.325977 4.98283 0.117578 5.4849 0.411243 5.78804L1.98377 7.36057L6.36032 11.7371C6.71083 12.0876 7.28869 12.0876 7.64866 11.7371H7.63918Z" fill="#FF5946"/>
</svg>
