<svg width="18" height="17" viewBox="0 0 18 17" fill="none" xmlns="http://www.w3.org/2000/svg">
<path d="M8.45517 1.37495C8.66961 0.910031 9.33039 0.91003 9.54484 1.37495L11.1094 4.76702C11.3425 5.27231 11.8214 5.62022 12.3739 5.68574L16.0835 6.12556C16.5919 6.18585 16.7961 6.81428 16.4202 7.1619L13.6777 9.69814C13.2691 10.0759 13.0862 10.6389 13.1947 11.1847L13.9227 14.8485C14.0225 15.3507 13.4879 15.7391 13.0411 15.489L9.78151 13.6645C9.29595 13.3927 8.70405 13.3927 8.21849 13.6645L4.95889 15.489C4.51212 15.7391 3.97755 15.3507 4.07733 14.8485L4.80534 11.1847C4.91379 10.6389 4.73088 10.0759 4.32234 9.69814L1.57979 7.1619C1.20389 6.81428 1.40808 6.18585 1.91651 6.12556L5.62605 5.68574C6.17863 5.62022 6.65749 5.27231 6.89056 4.76702L8.45517 1.37495Z" stroke="#76777D"/>
</svg>
