<svg width="24" height="24" viewBox="0 0 24 24" fill="none" xmlns="http://www.w3.org/2000/svg">
<path d="M15.463 3.70359L3.06604 16.1006L7.76689 20.8014L20.1639 8.40443L15.463 3.70359Z" fill="#FFDB49"/>
<path fill-rule="evenodd" clip-rule="evenodd" d="M22.1034 6.46841L20.1654 8.41241L15.4614 3.70841L17.3994 1.77041C17.9214 1.24841 18.7734 1.24841 19.3014 1.77041L22.1034 4.57241C22.6254 5.09441 22.6254 5.94641 22.1034 6.47441V6.46841Z" fill="#FF883E"/>
<path fill-rule="evenodd" clip-rule="evenodd" d="M1.97943 22.3558L4.27743 21.7378L2.12943 19.5898L1.51143 21.8878C1.43343 22.1698 1.69143 22.4278 1.97343 22.3498L1.97943 22.3558Z" fill="#707070"/>
<path fill-rule="evenodd" clip-rule="evenodd" d="M2.12939 19.5965L4.27739 21.7385L7.76939 20.8085L3.06539 16.1045L2.12939 19.5965Z" fill="#FCFFCD"/>
</svg>
