<svg width="10" height="10" viewBox="0 0 10 10" fill="none" xmlns="http://www.w3.org/2000/svg">
<path d="M5.53634 0.348408L6.61809 2.63936C6.70534 2.82378 6.87353 2.95167 7.06816 2.98096L9.4875 3.34814C9.97785 3.42282 10.1737 4.05239 9.81874 4.41379L8.06819 6.19688C7.92725 6.34045 7.8629 6.54714 7.89606 6.75012L8.30942 9.26799C8.39312 9.77833 7.88066 10.1678 7.44204 9.92685L5.27814 8.73826C5.10403 8.64254 4.89597 8.64254 4.72186 8.73826L2.55796 9.92685C2.11934 10.1678 1.60649 9.77874 1.69058 9.26799L2.10394 6.75012C2.1371 6.54756 2.07275 6.34045 1.93181 6.19688L0.181259 4.41379C-0.173667 4.05239 0.0221547 3.4224 0.512497 3.34814L2.93184 2.98096C3.12647 2.95126 3.29505 2.82378 3.38191 2.63936L4.46366 0.348408C4.68317 -0.116136 5.31722 -0.116136 5.53634 0.348408Z" fill="#F6FE8B"/>
</svg>
