<svg width="18" height="17" viewBox="0 0 18 17" fill="none" xmlns="http://www.w3.org/2000/svg">
<path d="M8.00114 1.16553C8.39429 0.313171 9.60571 0.313172 9.99886 1.16553L11.5635 4.5576C11.7237 4.90499 12.0529 5.14417 12.4328 5.18922L16.1424 5.62904C17.0745 5.73956 17.4488 6.89169 16.7597 7.52899L14.0171 10.0652C13.7363 10.325 13.6105 10.712 13.6851 11.0872L14.4131 14.7511C14.596 15.6718 13.616 16.3838 12.7969 15.9253L9.53729 14.1007C9.20347 13.9139 8.79653 13.9139 8.46271 14.1007L5.20311 15.9253C4.38404 16.3838 3.40398 15.6718 3.58692 14.7511L4.31493 11.0872C4.38949 10.712 4.26374 10.325 3.98287 10.0652L1.24031 7.52899C0.551161 6.89168 0.925511 5.73956 1.85764 5.62904L5.56718 5.18922C5.94708 5.14417 6.27629 4.90498 6.43653 4.5576L8.00114 1.16553Z" fill="#C8C8C8"/>
</svg>
