<svg width="12" height="12" viewBox="0 0 12 12" fill="none" xmlns="http://www.w3.org/2000/svg">
<mask id="path-1-inside-1_10758_8074" fill="white">
<path d="M9.28662 8.78418H4.44678L4.44775 8.7832H2.51514L4.22998 6.41992L5.22998 7.79785L6.8667 5.74023L9.28662 8.78418Z"/>
</mask>
<path d="M9.28662 8.78418H4.44678L4.44775 8.7832H2.51514L4.22998 6.41992L5.22998 7.79785L6.8667 5.74023L9.28662 8.78418Z" fill="#F7F7F8"/>
<path d="M9.28662 8.78418V9.3388H10.4361L9.72077 8.43904L9.28662 8.78418ZM4.44678 8.78418L4.0546 8.392L3.1078 9.3388H4.44678V8.78418ZM4.44775 8.7832L4.83993 9.17538L5.78673 8.22858H4.44775V8.7832ZM2.51514 8.7832L2.06624 8.45748L1.42744 9.33782H2.51514V8.7832ZM4.22998 6.41992L4.67885 6.09416L4.22995 5.4756L3.78109 6.09419L4.22998 6.41992ZM5.22998 7.79785L4.78111 8.12361L5.20974 8.71423L5.66403 8.14311L5.22998 7.79785ZM6.8667 5.74023L7.30084 5.39509L6.86682 4.84915L6.43265 5.39497L6.8667 5.74023ZM9.28662 8.78418V8.22956H4.44678V8.78418V9.3388H9.28662V8.78418ZM4.44678 8.78418L4.83895 9.17636L4.83993 9.17538L4.44775 8.7832L4.05558 8.39103L4.0546 8.392L4.44678 8.78418ZM4.44775 8.7832V8.22858H2.51514V8.7832V9.33782H4.44775V8.7832ZM2.51514 8.7832L2.96403 9.10893L4.67888 6.74565L4.22998 6.41992L3.78109 6.09419L2.06624 8.45748L2.51514 8.7832ZM4.22998 6.41992L3.78111 6.74568L4.78111 8.12361L5.22998 7.79785L5.67885 7.47209L4.67885 6.09416L4.22998 6.41992ZM5.22998 7.79785L5.66403 8.14311L7.30075 6.0855L6.8667 5.74023L6.43265 5.39497L4.79593 7.45259L5.22998 7.79785ZM6.8667 5.74023L6.43255 6.08538L8.85248 9.12932L9.28662 8.78418L9.72077 8.43904L7.30084 5.39509L6.8667 5.74023Z" fill="#F7F7F8" mask="url(#path-1-inside-1_10758_8074)"/>
<circle cx="3.82568" cy="4.00928" r="0.522982" fill="#F7F7F8" stroke="#F7F7F8" stroke-width="0.554622"/>
<rect x="0.443697" y="0.943697" width="10.7597" height="10.1126" rx="0.665546" stroke="#F7F7F8" stroke-width="0.887395"/>
</svg>
