<svg width="14" height="14" viewBox="0 0 14 14" fill="none" xmlns="http://www.w3.org/2000/svg">
<path d="M6.36033 1.26288L1.98377 5.63943L0.411238 7.21196C0.117573 7.50562 0.325986 8.01717 0.7428 8.01717L3.65104 8.01717C3.93523 8.01717 4.17204 8.254 4.17204 8.53819L4.17204 12.5548C4.17204 12.8011 4.37098 13 4.61728 13L9.38223 13C9.62853 13 9.82746 12.8011 9.82746 12.5548L9.82746 8.53819C9.82746 8.254 10.0643 8.01717 10.3485 8.01717L13.2567 8.01717C13.6735 8.01717 13.8819 7.5151 13.5883 7.21196L12.0157 5.63943L7.63919 1.26288C7.28869 0.912374 6.71083 0.912374 6.35085 1.26288L6.36033 1.26288Z" fill="#4D90FF"/>
</svg>
