<svg width="88" height="88" viewBox="0 0 88 88" fill="none" xmlns="http://www.w3.org/2000/svg">
<g clip-path="url(#clip0_10758_8065)">
<rect x="0.5" y="0.5" width="87" height="87" rx="43.5" fill="#2E2F33"/>
<path fill-rule="evenodd" clip-rule="evenodd" d="M44 46.5412C29.6823 46.5412 24.1143 56.1965 24.1143 60.6856C24.1143 65.1747 35.969 66.3714 44 66.3714C52.031 66.3714 63.8857 65.1747 63.8857 60.6856C63.8857 56.1965 58.3177 46.5412 44 46.5412ZM44 43.3191C45.399 43.3191 46.7842 43.0466 48.0767 42.5172C49.3692 41.9878 50.5436 41.2118 51.5328 40.2336C52.5221 39.2553 53.3068 38.094 53.8421 36.8159C54.3775 35.5378 54.653 34.1679 54.653 32.7845C54.653 31.4011 54.3775 30.0312 53.8421 28.7531C53.3068 27.475 52.5221 26.3137 51.5328 25.3355C50.5436 24.3573 49.3692 23.5813 48.0767 23.0519C46.7842 22.5225 45.399 22.25 44 22.25C41.1746 22.25 38.465 23.3599 36.4671 25.3355C34.4693 27.3111 33.3469 29.9906 33.3469 32.7845C33.3469 35.5785 34.4693 38.258 36.4671 40.2336C38.465 42.2092 41.1746 43.3191 44 43.3191Z" fill="#5B5C63"/>
</g>
<defs>
<clipPath id="clip0_10758_8065">
<rect x="0.5" y="0.5" width="87" height="87" rx="43.5" fill="white"/>
</clipPath>
</defs>
</svg>
