<svg width="32" height="22" viewBox="0 0 32 22" fill="none" xmlns="http://www.w3.org/2000/svg">
<g id="Frame 427322917">
<g clip-path="url(#clip0_9703_3346)">
<rect width="32" height="21.3333" rx="2.13333" fill="#E1E2E4"/>
<path id="Vector 886" d="M29.8667 0H2.13333C0.955126 0 0 0.955127 0 2.13333V5.33333L16 14.4L32 5.33333V2.13333C32 0.955126 31.0449 0 29.8667 0Z" fill="#F7F7F8"/>
<path id="Vector" fill-rule="evenodd" clip-rule="evenodd" d="M13.2353 6.40121C12.1447 6.40121 11.2172 6.7778 10.5669 7.46453C9.92266 8.14387 9.6001 9.07427 9.6001 10.1039C9.6001 11.8925 10.5473 13.3177 11.7505 14.4261C12.9486 15.5296 14.4556 16.369 15.7031 16.9966C15.7943 17.0426 15.8957 17.0668 15.9986 17.0671C16.1016 17.0673 16.2031 17.0437 16.2945 16.9983C17.5429 16.3772 19.0491 15.5313 20.248 14.422C21.4512 13.3103 22.4001 11.8802 22.4001 10.1039C22.4001 9.07017 22.0758 8.14059 21.4307 7.46124C20.7796 6.77616 19.852 6.40039 18.7649 6.40039C17.8467 6.40039 17.0872 6.72775 16.5095 7.34474C16.3121 7.55854 16.1411 7.79368 16.0001 8.04541C15.8591 7.79368 15.6881 7.55854 15.4907 7.34474C14.913 6.72775 14.1535 6.40121 13.2353 6.40121Z" fill="#F85B69"/>
</g>
</g>
<defs>
<clipPath id="clip0_9703_3346">
<rect width="32" height="21.3333" rx="2.13333" fill="white"/>
</clipPath>
</defs>
</svg>
